<svg width="585" height="191" viewBox="0 0 585 191" fill="none" xmlns="http://www.w3.org/2000/svg">
<path d="M219.888 79.6651L218.708 78.9476L215.415 77.8909L213.366 77.9953L211.966 78.4127L210.877 79.2085L208.051 79.5868L206.313 79.4173L208.478 82.3786L208.453 83.4353L206.987 83.2918L205.626 82.3264L205.224 82.3525L202.411 84.0615L200.894 86.5793L201.283 87.4925L203.007 88.3666L203.681 89.2276L203.642 91.7323L203.254 93.7413L203.526 94.2762L205.224 94.7328L205.445 96.9767L205.03 97.5246L203.798 97.8377L202.54 97.7985L201.503 97.3419L199.585 97.4594L199.027 98.1768L199.662 99.1031L200.648 99.4684L201.231 99.09L201.905 99.2075L203.331 100.864L204.978 104.53L205.354 107.7L204.654 111.575L202.437 114.301L200.829 115.423L200.492 115.997L200.181 118.241L199.04 121.228L197.601 122.885L196.343 127.112L195.63 127.53L188.953 127.49L186.723 130.178L186.516 130.726L187.281 134.796L186.542 136.492L185.971 139.545L186.347 139.727L183.067 142.793L181.459 143.145L180.733 143.797L181.693 144.711L178.633 152.603L176.17 157.443L176.053 158.422L177.92 158.591L178.296 159.387L178.024 160.065L174.744 161.344L162.414 167.253L160.638 167.514L160.664 166.914L160.028 166.692L156.748 166.34L156.009 166.419L153.909 167.645L152.288 167.854L148.139 167.958L147.673 167.54L147.012 167.645L141.696 169.967L140.335 170.971L138.118 171.976L137.469 171.611L134.111 171.832L130.339 173.581L127.201 174.546L126.319 175.185L124.699 176.138L121.847 176.425L119.344 177.755L117.75 179.373L115.429 180.247L112.343 180.573L109.309 180.469L109.296 179.829L109.75 179.19L109.633 178.734L108.091 179.164L107.857 182.165L108.168 182.465L108.104 183.56L107.131 184.839L105.446 185.256L104.707 184.695L100.026 186L99.7801 185.309L97.1742 185.622L95.7221 185.296L93.0902 180.977L94.6719 180.051L93.9977 177.82L91.664 176.738L89.3433 175.133L88.4228 173.033L89.1099 170.998L89.3563 166.497L89.0192 162.661L91.4307 159.113L92.3382 156.269L92.4031 154.612L92.1049 154.13L87.3078 152.408L86.0113 152.473L85.6483 152.942L84.637 153.347L82.5497 153.412L82.5886 152.303L81.5125 149.707L79.827 147.372L79.3473 144.489L78.9454 143.68L77.9212 142.715L78.1675 140.184L80.1382 137.536L80.216 136.805L79.6974 134.783L77.2599 133.204L76.508 132.409L76.884 129.317L77.623 127.999L77.3637 126.642L73.1241 122.272L71.4387 122.65L70.3367 123.485L68.1974 122.468L65.1118 122.611L64.7099 123.407L64.9692 124.007L64.3987 125.299L60.7945 126.186L59.3553 125.625L57.3976 123.733L56.0882 125.364L45.4828 126.251L44.8864 126.877L44.2641 128.43L44.6142 131.743L44.0826 132.317L42.5397 131.639L42.5268 128.012L42.2027 126.76L41.7359 126.251L41.0099 126.186L40.6728 126.434L40.1412 127.908L39.2726 129.134L38.5725 129.552L37.7686 129.525L36.1999 126.786L35.772 124.933L35.9536 123.746L33.7755 122.716L30.9491 120.863L28.369 121.633L26.2687 121.346L24.1036 121.802L18.5416 120.55L15.2355 120.446L12.9926 118.424L12.0202 118.241L10.0755 119.037L8.22146 121.242L5.73221 121.724L2.94475 123.172L1.36302 124.646L1.76493 121.228L1 117.041L2.28352 111.588L3.03547 111.262L4.15048 111.862L4.6172 111.562L4.63018 111.118L3.90414 110.322L4.64315 107.844L6.76939 105.104L7.9881 104.139L8.57154 103.956L9.66059 104.165L10.7237 103.8L11.8128 102.104L11.735 100.799L13.3037 97.5898L15.1318 94.8502L18.023 94.1458L21.2383 92.8934L26.0483 93.7022L30.1841 91.5627L32.1548 91.9541L33.8532 93.8066H34.2811L38.0539 89.9973L43.4084 86.5532L46.0144 87.7143L51.0188 87.5055L52.9377 87.8708L55.2066 87.8578L55.9585 87.7403L56.6716 87.1142L62.3113 89.5406L63.2189 90.5452L69.5587 86.9707L70.1811 85.5096L71.2961 84.3355L72.8 84.0745L76.8062 81.3871L75.2634 76.8734L75.9246 74.4077L76.871 73.2336L77.0914 72.3074L76.858 71.0028L76.2487 70.207L74.2002 69.4634L73.0334 70.0766L71.6202 68.6285L72.1777 65.8368L76.3783 61.91L79.3862 58.3747V57.5919L77.247 51.6431L75.406 50.2994L74.3039 49.8559L73.2019 48.2773L73.7335 46.3596L75.0818 44.7289L75.9634 42.6547L75.5615 40.6065L76.2487 38.6236L77.8953 38.467L80.8642 36.4971L85.2205 35.323L85.9076 34.6316L85.013 29.0742L84.3259 28.8263L83.7813 28.0305L83.7295 25.5519L84.6759 24.6387L85.4149 23.4124L84.7797 21.8991L83.8462 21.7687L84.7797 17.6201L85.2593 17.2548L86.7762 16.9548L90.3805 18.442L90.8991 18.2724L91.6381 17.568L90.8861 12.6497L92.4031 10.7059L95.5406 12.6367L96.7074 14.9327L100.895 15.3763L102.192 14.0587L102.853 17.2027L100.999 21.6904L101.517 21.9904L103.255 20.8032L104.162 19.4987L105.096 19.3291L107.857 19.8248L109.206 18.8203L111.604 15.4676L112.888 15.6633L114.742 14.9719L117.088 12.9498L118.32 11.4234L120.939 10.8886L125.308 8.4621L126.138 7.01405L131.674 3.06119L136.627 1L138.96 1.11741L140.516 1.76969L143.342 1.80882L146.298 2.50024L147.4 3.10037L145.728 6.67485L145.533 7.83589L145.871 9.77972L146.661 10.432L153.572 12.3367L154.402 12.1149L155.452 10.6538L157.889 9.49271L160.184 9.15351L163.723 10.1319L165.15 10.8364L170.789 15.585L172.06 15.3502L174.873 17.4636L178.153 19.0551L179.359 19.3421L180.02 19.0682L182.004 20.6858L187.696 19.0813L188.188 19.3161L196.641 27.4043L197.212 32.5704L197.951 32.2964L201.335 32.8835L203.241 32.2312L204.952 30.9397L207.532 31.1354L211.071 31.866L214.002 33.2749L216.841 34.0707L219.589 34.0315L223.258 37.2538L224.205 37.7495L225.359 37.8408L226.37 39.1715L226.915 40.6978L225.009 44.7159L218.578 50.2212L218.384 53.6782L219.11 55.0089V55.5568L217.787 56.483L214.572 56.17L213.509 57.318L212.446 61.623L211.759 67.3631L212.044 67.6892L212.498 67.4414L212.757 66.8543L213.587 66.5412L214.339 68.1458L214.053 70.1157L214.248 70.781L219.615 74.773L220.303 76.1297L220.315 76.8212L219.434 78.5823L219.888 79.6651Z" fill="#BAE4BC" stroke="#DDDDDD"/>
<path d="M128.902 85.6H132.356L133.896 96.622H133.94L135.48 85.6H138.934V101H136.646V89.34H136.602L134.842 101H132.818L131.058 89.34H131.014V101H128.902V85.6ZM144.172 101.22C142.999 101.22 142.104 100.89 141.488 100.23C140.872 99.5553 140.564 98.5947 140.564 97.348V89.252C140.564 88.0053 140.872 87.052 141.488 86.392C142.104 85.7173 142.999 85.38 144.172 85.38C145.345 85.38 146.24 85.7173 146.856 86.392C147.472 87.052 147.78 88.0053 147.78 89.252V90.572H145.492V89.098C145.492 88.086 145.074 87.58 144.238 87.58C143.402 87.58 142.984 88.086 142.984 89.098V97.524C142.984 98.5213 143.402 99.02 144.238 99.02C145.074 99.02 145.492 98.5213 145.492 97.524V94.51H144.282V92.31H147.78V97.348C147.78 98.5947 147.472 99.5553 146.856 100.23C146.24 100.89 145.345 101.22 144.172 101.22Z" fill="white"/>
<rect x="151" y="120" width="10.0407" height="10" fill="#D92525"/>
<rect x="124" y="110" width="10.0407" height="10" fill="#D92525"/>
<rect x="129" y="142" width="10.0407" height="10" fill="#D92525"/>
<rect x="161.13" y="64" width="10.0407" height="10" fill="#D92525"/>
<rect x="240" y="97" width="10.0407" height="10" fill="#D92525"/>
<rect x="240" y="120" width="10.0407" height="10" fill="#D92525"/>
<rect x="240" y="147" width="10.0407" height="10" fill="#D92525"/>
<rect x="240" y="174" width="10.0407" height="10" fill="#D92525"/>
<path d="M261.312 107.22C260.153 107.22 259.266 106.89 258.65 106.23C258.049 105.57 257.748 104.639 257.748 103.436V95.164C257.748 93.9613 258.049 93.03 258.65 92.37C259.266 91.71 260.153 91.38 261.312 91.38C262.471 91.38 263.351 91.71 263.952 92.37C264.568 93.03 264.876 93.9613 264.876 95.164V96.792H262.588V95.01C262.588 94.0567 262.185 93.58 261.378 93.58C260.571 93.58 260.168 94.0567 260.168 95.01V103.612C260.168 104.551 260.571 105.02 261.378 105.02C262.185 105.02 262.588 104.551 262.588 103.612V101.258H264.876V103.436C264.876 104.639 264.568 105.57 263.952 106.23C263.351 106.89 262.471 107.22 261.312 107.22ZM266.324 91.6H272.924V93.8H268.744V97.87H272.066V100.07H268.744V104.8H272.924V107H266.324V91.6ZM274.316 91.6H277.352L279.706 100.818H279.75V91.6H281.906V107H279.42L276.516 95.758H276.472V107H274.316V91.6ZM285.597 93.8H283.067V91.6H290.547V93.8H288.017V107H285.597V93.8ZM291.718 91.6H295.304C296.551 91.6 297.46 91.8933 298.032 92.48C298.604 93.052 298.89 93.9393 298.89 95.142V96.088C298.89 97.6867 298.362 98.6987 297.306 99.124V99.168C297.893 99.344 298.304 99.7033 298.538 100.246C298.788 100.789 298.912 101.515 298.912 102.424V105.13C298.912 105.57 298.927 105.929 298.956 106.208C298.986 106.472 299.059 106.736 299.176 107H296.712C296.624 106.751 296.566 106.516 296.536 106.296C296.507 106.076 296.492 105.68 296.492 105.108V102.292C296.492 101.588 296.375 101.097 296.14 100.818C295.92 100.539 295.532 100.4 294.974 100.4H294.138V107H291.718V91.6ZM295.018 98.2C295.502 98.2 295.862 98.0753 296.096 97.826C296.346 97.5767 296.47 97.1587 296.47 96.572V95.384C296.47 94.8267 296.368 94.4233 296.162 94.174C295.972 93.9247 295.664 93.8 295.238 93.8H294.138V98.2H295.018ZM304.089 107.22C302.901 107.22 301.992 106.883 301.361 106.208C300.731 105.533 300.415 104.58 300.415 103.348V95.252C300.415 94.02 300.731 93.0667 301.361 92.392C301.992 91.7173 302.901 91.38 304.089 91.38C305.277 91.38 306.187 91.7173 306.817 92.392C307.448 93.0667 307.763 94.02 307.763 95.252V103.348C307.763 104.58 307.448 105.533 306.817 106.208C306.187 106.883 305.277 107.22 304.089 107.22ZM304.089 105.02C304.925 105.02 305.343 104.514 305.343 103.502V95.098C305.343 94.086 304.925 93.58 304.089 93.58C303.253 93.58 302.835 94.086 302.835 95.098V103.502C302.835 104.514 303.253 105.02 304.089 105.02ZM312.923 91.6H315.343V97.87H317.939V91.6H320.359V107H317.939V100.07H315.343V107H312.923V91.6ZM322.162 91.6H324.582V107H322.162V91.6ZM329.54 107.22C328.367 107.22 327.48 106.89 326.878 106.23C326.277 105.555 325.976 104.595 325.976 103.348V102.468H328.264V103.524C328.264 104.521 328.682 105.02 329.518 105.02C329.929 105.02 330.237 104.903 330.442 104.668C330.662 104.419 330.772 104.023 330.772 103.48C330.772 102.835 330.626 102.27 330.332 101.786C330.039 101.287 329.496 100.693 328.704 100.004C327.707 99.124 327.01 98.332 326.614 97.628C326.218 96.9093 326.02 96.1027 326.02 95.208C326.02 93.9907 326.328 93.052 326.944 92.392C327.56 91.7173 328.455 91.38 329.628 91.38C330.787 91.38 331.66 91.7173 332.246 92.392C332.848 93.052 333.148 94.0053 333.148 95.252V95.89H330.86V95.098C330.86 94.57 330.758 94.1887 330.552 93.954C330.347 93.7047 330.046 93.58 329.65 93.58C328.844 93.58 328.44 94.0713 328.44 95.054C328.44 95.6113 328.587 96.132 328.88 96.616C329.188 97.1 329.738 97.6867 330.53 98.376C331.542 99.256 332.239 100.055 332.62 100.774C333.002 101.493 333.192 102.336 333.192 103.304C333.192 104.565 332.877 105.533 332.246 106.208C331.63 106.883 330.728 107.22 329.54 107.22ZM336.472 93.8H333.942V91.6H341.422V93.8H338.892V107H336.472V93.8ZM346.005 107.22C344.817 107.22 343.908 106.883 343.277 106.208C342.647 105.533 342.331 104.58 342.331 103.348V95.252C342.331 94.02 342.647 93.0667 343.277 92.392C343.908 91.7173 344.817 91.38 346.005 91.38C347.193 91.38 348.103 91.7173 348.733 92.392C349.364 93.0667 349.679 94.02 349.679 95.252V103.348C349.679 104.58 349.364 105.533 348.733 106.208C348.103 106.883 347.193 107.22 346.005 107.22ZM346.005 105.02C346.841 105.02 347.259 104.514 347.259 103.502V95.098C347.259 94.086 346.841 93.58 346.005 93.58C345.169 93.58 344.751 94.086 344.751 95.098V103.502C344.751 104.514 345.169 105.02 346.005 105.02ZM346.225 88.036H348.865L346.511 90.566H344.685L346.225 88.036ZM351.316 91.6H354.902C356.149 91.6 357.058 91.8933 357.63 92.48C358.202 93.052 358.488 93.9393 358.488 95.142V96.088C358.488 97.6867 357.96 98.6987 356.904 99.124V99.168C357.491 99.344 357.901 99.7033 358.136 100.246C358.385 100.789 358.51 101.515 358.51 102.424V105.13C358.51 105.57 358.525 105.929 358.554 106.208C358.583 106.472 358.657 106.736 358.774 107H356.31C356.222 106.751 356.163 106.516 356.134 106.296C356.105 106.076 356.09 105.68 356.09 105.108V102.292C356.09 101.588 355.973 101.097 355.738 100.818C355.518 100.539 355.129 100.4 354.572 100.4H353.736V107H351.316V91.6ZM354.616 98.2C355.1 98.2 355.459 98.0753 355.694 97.826C355.943 97.5767 356.068 97.1587 356.068 96.572V95.384C356.068 94.8267 355.965 94.4233 355.76 94.174C355.569 93.9247 355.261 93.8 354.836 93.8H353.736V98.2H354.616ZM360.189 91.6H362.609V107H360.189V91.6ZM367.832 107.22C366.673 107.22 365.786 106.89 365.17 106.23C364.568 105.57 364.268 104.639 364.268 103.436V95.164C364.268 93.9613 364.568 93.03 365.17 92.37C365.786 91.71 366.673 91.38 367.832 91.38C368.99 91.38 369.87 91.71 370.472 92.37C371.088 93.03 371.396 93.9613 371.396 95.164V96.792H369.108V95.01C369.108 94.0567 368.704 93.58 367.898 93.58C367.091 93.58 366.688 94.0567 366.688 95.01V103.612C366.688 104.551 367.091 105.02 367.898 105.02C368.704 105.02 369.108 104.551 369.108 103.612V101.258H371.396V103.436C371.396 104.639 371.088 105.57 370.472 106.23C369.87 106.89 368.99 107.22 367.832 107.22ZM376.384 107.22C375.196 107.22 374.287 106.883 373.656 106.208C373.026 105.533 372.71 104.58 372.71 103.348V95.252C372.71 94.02 373.026 93.0667 373.656 92.392C374.287 91.7173 375.196 91.38 376.384 91.38C377.572 91.38 378.482 91.7173 379.112 92.392C379.743 93.0667 380.058 94.02 380.058 95.252V103.348C380.058 104.58 379.743 105.533 379.112 106.208C378.482 106.883 377.572 107.22 376.384 107.22ZM376.384 105.02C377.22 105.02 377.638 104.514 377.638 103.502V95.098C377.638 94.086 377.22 93.58 376.384 93.58C375.548 93.58 375.13 94.086 375.13 95.098V103.502C375.13 104.514 375.548 105.02 376.384 105.02ZM385.218 91.6H388.914C390.117 91.6 391.019 91.9227 391.62 92.568C392.222 93.2133 392.522 94.1593 392.522 95.406V103.194C392.522 104.441 392.222 105.387 391.62 106.032C391.019 106.677 390.117 107 388.914 107H385.218V91.6ZM388.87 104.8C389.266 104.8 389.567 104.683 389.772 104.448C389.992 104.213 390.102 103.832 390.102 103.304V95.296C390.102 94.768 389.992 94.3867 389.772 94.152C389.567 93.9173 389.266 93.8 388.87 93.8H387.638V104.8H388.87ZM397.654 107.22C396.466 107.22 395.557 106.883 394.926 106.208C394.295 105.533 393.98 104.58 393.98 103.348V95.252C393.98 94.02 394.295 93.0667 394.926 92.392C395.557 91.7173 396.466 91.38 397.654 91.38C398.842 91.38 399.751 91.7173 400.382 92.392C401.013 93.0667 401.328 94.02 401.328 95.252V103.348C401.328 104.58 401.013 105.533 400.382 106.208C399.751 106.883 398.842 107.22 397.654 107.22ZM397.654 105.02C398.49 105.02 398.908 104.514 398.908 103.502V95.098C398.908 94.086 398.49 93.58 397.654 93.58C396.818 93.58 396.4 94.086 396.4 95.098V103.502C396.4 104.514 396.818 105.02 397.654 105.02ZM406.488 91.6H409.942L411.482 102.622H411.526L413.066 91.6H416.52V107H414.232V95.34H414.188L412.428 107H410.404L408.644 95.34H408.6V107H406.488V91.6ZM421.846 107.22C420.672 107.22 419.778 106.89 419.162 106.23C418.546 105.555 418.238 104.595 418.238 103.348V91.6H420.658V103.524C420.658 104.052 420.76 104.433 420.966 104.668C421.186 104.903 421.494 105.02 421.89 105.02C422.286 105.02 422.586 104.903 422.792 104.668C423.012 104.433 423.122 104.052 423.122 103.524V91.6H425.454V103.348C425.454 104.595 425.146 105.555 424.53 106.23C423.914 106.89 423.019 107.22 421.846 107.22ZM427.177 91.6H430.213L432.567 100.818H432.611V91.6H434.767V107H432.281L429.377 95.758H429.333V107H427.177V91.6ZM436.566 91.6H438.986V107H436.566V91.6ZM444.208 107.22C443.05 107.22 442.162 106.89 441.546 106.23C440.945 105.57 440.644 104.639 440.644 103.436V95.164C440.644 93.9613 440.945 93.03 441.546 92.37C442.162 91.71 443.05 91.38 444.208 91.38C445.367 91.38 446.247 91.71 446.848 92.37C447.464 93.03 447.772 93.9613 447.772 95.164V96.792H445.484V95.01C445.484 94.0567 445.081 93.58 444.274 93.58C443.468 93.58 443.064 94.0567 443.064 95.01V103.612C443.064 104.551 443.468 105.02 444.274 105.02C445.081 105.02 445.484 104.551 445.484 103.612V101.258H447.772V103.436C447.772 104.639 447.464 105.57 446.848 106.23C446.247 106.89 445.367 107.22 444.208 107.22ZM449.22 91.6H451.64V107H449.22V91.6ZM450.65 88.036H453.29L450.936 90.566H449.11L450.65 88.036ZM453.453 91.6H457.017C458.219 91.6 459.121 91.9227 459.723 92.568C460.324 93.2133 460.625 94.1593 460.625 95.406V96.924C460.625 98.1707 460.324 99.1167 459.723 99.762C459.121 100.407 458.219 100.73 457.017 100.73H455.873V107H453.453V91.6ZM457.017 98.53C457.413 98.53 457.706 98.42 457.897 98.2C458.102 97.98 458.205 97.606 458.205 97.078V95.252C458.205 94.724 458.102 94.35 457.897 94.13C457.706 93.91 457.413 93.8 457.017 93.8H455.873V98.53H457.017ZM461.939 91.6H464.359V107H461.939V91.6ZM469.67 107.22C468.482 107.22 467.572 106.883 466.942 106.208C466.311 105.533 465.996 104.58 465.996 103.348V95.252C465.996 94.02 466.311 93.0667 466.942 92.392C467.572 91.7173 468.482 91.38 469.67 91.38C470.858 91.38 471.767 91.7173 472.398 92.392C473.028 93.0667 473.344 94.02 473.344 95.252V103.348C473.344 104.58 473.028 105.533 472.398 106.208C471.767 106.883 470.858 107.22 469.67 107.22ZM469.67 105.02C470.506 105.02 470.924 104.514 470.924 103.502V95.098C470.924 94.086 470.506 93.58 469.67 93.58C468.834 93.58 468.416 94.086 468.416 95.098V103.502C468.416 104.514 468.834 105.02 469.67 105.02ZM478.504 91.6H482.2C483.402 91.6 484.304 91.9227 484.906 92.568C485.507 93.2133 485.808 94.1593 485.808 95.406V103.194C485.808 104.441 485.507 105.387 484.906 106.032C484.304 106.677 483.402 107 482.2 107H478.504V91.6ZM482.156 104.8C482.552 104.8 482.852 104.683 483.058 104.448C483.278 104.213 483.388 103.832 483.388 103.304V95.296C483.388 94.768 483.278 94.3867 483.058 94.152C482.852 93.9173 482.552 93.8 482.156 93.8H480.924V104.8H482.156ZM487.441 91.6H494.041V93.8H489.861V97.87H493.183V100.07H489.861V104.8H494.041V107H487.441V91.6ZM498.957 91.6H502.653C503.855 91.6 504.757 91.9227 505.359 92.568C505.96 93.2133 506.261 94.1593 506.261 95.406V103.194C506.261 104.441 505.96 105.387 505.359 106.032C504.757 106.677 503.855 107 502.653 107H498.957V91.6ZM502.609 104.8C503.005 104.8 503.305 104.683 503.511 104.448C503.731 104.213 503.841 103.832 503.841 103.304V95.296C503.841 94.768 503.731 94.3867 503.511 94.152C503.305 93.9173 503.005 93.8 502.609 93.8H501.377V104.8H502.609ZM507.894 91.6H510.314V107H507.894V91.6ZM513.997 91.6H517.275L519.783 107H517.363L516.923 103.942V103.986H514.173L513.733 107H511.489L513.997 91.6ZM516.637 101.896L515.559 94.284H515.515L514.459 101.896H516.637ZM520.957 91.6H524.411L525.951 102.622H525.995L527.535 91.6H530.989V107H528.701V95.34H528.657L526.897 107H524.873L523.113 95.34H523.069V107H520.957V91.6ZM534.665 91.6H537.943L540.451 107H538.031L537.591 103.942V103.986H534.841L534.401 107H532.157L534.665 91.6ZM537.305 101.896L536.227 94.284H536.183L535.127 101.896H537.305ZM541.625 91.6H544.661L547.015 100.818H547.059V91.6H549.215V107H546.729L543.825 95.758H543.781V107H541.625V91.6ZM552.905 93.8H550.375V91.6H557.855V93.8H555.325V107H552.905V93.8ZM559.027 91.6H561.447V107H559.027V91.6ZM563.259 91.6H566.295L568.649 100.818H568.693V91.6H570.849V107H568.363L565.459 95.758H565.415V107H563.259V91.6ZM574.518 91.6H577.796L580.304 107H577.884L577.444 103.942V103.986H574.694L574.254 107H572.01L574.518 91.6ZM577.158 101.896L576.08 94.284H576.036L574.98 101.896H577.158ZM261.312 133.22C260.153 133.22 259.266 132.89 258.65 132.23C258.049 131.57 257.748 130.639 257.748 129.436V121.164C257.748 119.961 258.049 119.03 258.65 118.37C259.266 117.71 260.153 117.38 261.312 117.38C262.471 117.38 263.351 117.71 263.952 118.37C264.568 119.03 264.876 119.961 264.876 121.164V122.792H262.588V121.01C262.588 120.057 262.185 119.58 261.378 119.58C260.571 119.58 260.168 120.057 260.168 121.01V129.612C260.168 130.551 260.571 131.02 261.378 131.02C262.185 131.02 262.588 130.551 262.588 129.612V127.258H264.876V129.436C264.876 130.639 264.568 131.57 263.952 132.23C263.351 132.89 262.471 133.22 261.312 133.22ZM269.865 133.22C268.677 133.22 267.768 132.883 267.137 132.208C266.506 131.533 266.191 130.58 266.191 129.348V121.252C266.191 120.02 266.506 119.067 267.137 118.392C267.768 117.717 268.677 117.38 269.865 117.38C271.053 117.38 271.962 117.717 272.593 118.392C273.224 119.067 273.539 120.02 273.539 121.252V129.348C273.539 130.58 273.224 131.533 272.593 132.208C271.962 132.883 271.053 133.22 269.865 133.22ZM269.865 131.02C270.701 131.02 271.119 130.514 271.119 129.502V121.098C271.119 120.086 270.701 119.58 269.865 119.58C269.029 119.58 268.611 120.086 268.611 121.098V129.502C268.611 130.514 269.029 131.02 269.865 131.02ZM275.175 117.6H278.211L280.565 126.818H280.609V117.6H282.765V133H280.279L277.375 121.758H277.331V133H275.175V117.6ZM285.136 133.088C284.696 133.088 284.322 133.059 284.014 133V130.8C284.249 130.859 284.513 130.888 284.806 130.888C285.29 130.888 285.649 130.771 285.884 130.536C286.119 130.287 286.236 129.913 286.236 129.414V117.6H288.656V129.348C288.656 130.609 288.363 131.548 287.776 132.164C287.204 132.78 286.324 133.088 285.136 133.088ZM293.906 133.22C292.733 133.22 291.838 132.89 291.222 132.23C290.606 131.555 290.298 130.595 290.298 129.348V117.6H292.718V129.524C292.718 130.052 292.821 130.433 293.026 130.668C293.246 130.903 293.554 131.02 293.95 131.02C294.346 131.02 294.647 130.903 294.852 130.668C295.072 130.433 295.182 130.052 295.182 129.524V117.6H297.514V129.348C297.514 130.595 297.206 131.555 296.59 132.23C295.974 132.89 295.08 133.22 293.906 133.22ZM299.238 117.6H302.274L304.628 126.818H304.672V117.6H306.828V133H304.342L301.438 121.758H301.394V133H299.238V117.6ZM310.519 119.8H307.989V117.6H315.469V119.8H312.939V133H310.519V119.8ZM320.052 133.22C318.864 133.22 317.955 132.883 317.324 132.208C316.694 131.533 316.378 130.58 316.378 129.348V121.252C316.378 120.02 316.694 119.067 317.324 118.392C317.955 117.717 318.864 117.38 320.052 117.38C321.24 117.38 322.15 117.717 322.78 118.392C323.411 119.067 323.726 120.02 323.726 121.252V129.348C323.726 130.58 323.411 131.533 322.78 132.208C322.15 132.883 321.24 133.22 320.052 133.22ZM320.052 131.02C320.888 131.02 321.306 130.514 321.306 129.502V121.098C321.306 120.086 320.888 119.58 320.052 119.58C319.216 119.58 318.798 120.086 318.798 121.098V129.502C318.798 130.514 319.216 131.02 320.052 131.02ZM328.886 117.6H332.34L333.88 128.622H333.924L335.464 117.6H338.918V133H336.63V121.34H336.586L334.826 133H332.802L331.042 121.34H330.998V133H328.886V117.6ZM344.222 133.22C343.034 133.22 342.125 132.883 341.494 132.208C340.864 131.533 340.548 130.58 340.548 129.348V121.252C340.548 120.02 340.864 119.067 341.494 118.392C342.125 117.717 343.034 117.38 344.222 117.38C345.41 117.38 346.32 117.717 346.95 118.392C347.581 119.067 347.896 120.02 347.896 121.252V129.348C347.896 130.58 347.581 131.533 346.95 132.208C346.32 132.883 345.41 133.22 344.222 133.22ZM344.222 131.02C345.058 131.02 345.476 130.514 345.476 129.502V121.098C345.476 120.086 345.058 119.58 344.222 119.58C343.386 119.58 342.968 120.086 342.968 121.098V129.502C342.968 130.514 343.386 131.02 344.222 131.02ZM349.533 117.6H353.229C354.432 117.6 355.334 117.923 355.935 118.568C356.536 119.213 356.837 120.159 356.837 121.406V129.194C356.837 130.441 356.536 131.387 355.935 132.032C355.334 132.677 354.432 133 353.229 133H349.533V117.6ZM353.185 130.8C353.581 130.8 353.882 130.683 354.087 130.448C354.307 130.213 354.417 129.832 354.417 129.304V121.296C354.417 120.768 354.307 120.387 354.087 120.152C353.882 119.917 353.581 119.8 353.185 119.8H351.953V130.8H353.185ZM358.47 117.6H365.07V119.8H360.89V123.87H364.212V126.07H360.89V130.8H365.07V133H358.47V117.6ZM366.463 117.6H370.049C371.295 117.6 372.205 117.893 372.777 118.48C373.349 119.052 373.635 119.939 373.635 121.142V122.088C373.635 123.687 373.107 124.699 372.051 125.124V125.168C372.637 125.344 373.048 125.703 373.283 126.246C373.532 126.789 373.657 127.515 373.657 128.424V131.13C373.657 131.57 373.671 131.929 373.701 132.208C373.73 132.472 373.803 132.736 373.921 133H371.457C371.369 132.751 371.31 132.516 371.281 132.296C371.251 132.076 371.237 131.68 371.237 131.108V128.292C371.237 127.588 371.119 127.097 370.885 126.818C370.665 126.539 370.276 126.4 369.719 126.4H368.883V133H366.463V117.6ZM369.763 124.2C370.247 124.2 370.606 124.075 370.841 123.826C371.09 123.577 371.215 123.159 371.215 122.572V121.384C371.215 120.827 371.112 120.423 370.907 120.174C370.716 119.925 370.408 119.8 369.983 119.8H368.883V124.2H369.763ZM375.336 117.6H378.372L380.726 126.818H380.77V117.6H382.926V133H380.44L377.536 121.758H377.492V133H375.336V117.6ZM388.222 133.22C387.034 133.22 386.125 132.883 385.494 132.208C384.864 131.533 384.548 130.58 384.548 129.348V121.252C384.548 120.02 384.864 119.067 385.494 118.392C386.125 117.717 387.034 117.38 388.222 117.38C389.41 117.38 390.32 117.717 390.95 118.392C391.581 119.067 391.896 120.02 391.896 121.252V129.348C391.896 130.58 391.581 131.533 390.95 132.208C390.32 132.883 389.41 133.22 388.222 133.22ZM388.222 131.02C389.058 131.02 389.476 130.514 389.476 129.502V121.098C389.476 120.086 389.058 119.58 388.222 119.58C387.386 119.58 386.968 120.086 386.968 121.098V129.502C386.968 130.514 387.386 131.02 388.222 131.02ZM397.056 117.6H400.752C401.955 117.6 402.857 117.923 403.458 118.568C404.06 119.213 404.36 120.159 404.36 121.406V129.194C404.36 130.441 404.06 131.387 403.458 132.032C402.857 132.677 401.955 133 400.752 133H397.056V117.6ZM400.708 130.8C401.104 130.8 401.405 130.683 401.61 130.448C401.83 130.213 401.94 129.832 401.94 129.304V121.296C401.94 120.768 401.83 120.387 401.61 120.152C401.405 119.917 401.104 119.8 400.708 119.8H399.476V130.8H400.708ZM407.821 117.6H411.099L413.607 133H411.187L410.747 129.942V129.986H407.997L407.557 133H405.313L407.821 117.6ZM410.461 127.896L409.383 120.284H409.339L408.283 127.896H410.461ZM418.304 117.6H421.868C423.071 117.6 423.973 117.923 424.574 118.568C425.176 119.213 425.476 120.159 425.476 121.406V122.924C425.476 124.171 425.176 125.117 424.574 125.762C423.973 126.407 423.071 126.73 421.868 126.73H420.724V133H418.304V117.6ZM421.868 124.53C422.264 124.53 422.558 124.42 422.748 124.2C422.954 123.98 423.056 123.606 423.056 123.078V121.252C423.056 120.724 422.954 120.35 422.748 120.13C422.558 119.91 422.264 119.8 421.868 119.8H420.724V124.53H421.868ZM427.887 117.6H431.165L433.673 133H431.253L430.813 129.942V129.986H428.063L427.623 133H425.379L427.887 117.6ZM430.527 127.896L429.449 120.284H429.405L428.349 127.896H430.527ZM434.847 117.6H438.301L439.841 128.622H439.885L441.425 117.6H444.879V133H442.591V121.34H442.547L440.787 133H438.763L437.003 121.34H436.959V133H434.847V117.6ZM446.685 117.6H450.249C451.452 117.6 452.354 117.923 452.955 118.568C453.557 119.213 453.857 120.159 453.857 121.406V122.924C453.857 124.171 453.557 125.117 452.955 125.762C452.354 126.407 451.452 126.73 450.249 126.73H449.105V133H446.685V117.6ZM450.249 124.53C450.645 124.53 450.939 124.42 451.129 124.2C451.335 123.98 451.437 123.606 451.437 123.078V121.252C451.437 120.724 451.335 120.35 451.129 120.13C450.939 119.91 450.645 119.8 450.249 119.8H449.105V124.53H450.249ZM458.692 133.22C457.518 133.22 456.624 132.89 456.008 132.23C455.392 131.555 455.084 130.595 455.084 129.348V117.6H457.504V129.524C457.504 130.052 457.606 130.433 457.812 130.668C458.032 130.903 458.34 131.02 458.736 131.02C459.132 131.02 459.432 130.903 459.638 130.668C459.858 130.433 459.968 130.052 459.968 129.524V117.6H462.3V129.348C462.3 130.595 461.992 131.555 461.376 132.23C460.76 132.89 459.865 133.22 458.692 133.22ZM464.023 117.6H466.443V130.8H470.425V133H464.023V117.6ZM471.586 117.6H474.006V123.87H476.602V117.6H479.022V133H476.602V126.07H474.006V133H471.586V117.6ZM482.694 117.6H485.972L488.48 133H486.06L485.62 129.942V129.986H482.87L482.43 133H480.186L482.694 117.6ZM485.334 127.896L484.256 120.284H484.212L483.156 127.896H485.334ZM261.312 159.22C260.153 159.22 259.266 158.89 258.65 158.23C258.049 157.57 257.748 156.639 257.748 155.436V147.164C257.748 145.961 258.049 145.03 258.65 144.37C259.266 143.71 260.153 143.38 261.312 143.38C262.471 143.38 263.351 143.71 263.952 144.37C264.568 145.03 264.876 145.961 264.876 147.164V148.792H262.588V147.01C262.588 146.057 262.185 145.58 261.378 145.58C260.571 145.58 260.168 146.057 260.168 147.01V155.612C260.168 156.551 260.571 157.02 261.378 157.02C262.185 157.02 262.588 156.551 262.588 155.612V153.258H264.876V155.436C264.876 156.639 264.568 157.57 263.952 158.23C263.351 158.89 262.471 159.22 261.312 159.22ZM266.324 143.6H268.744V159H266.324V143.6ZM270.556 143.6H274.252C275.455 143.6 276.357 143.923 276.958 144.568C277.56 145.213 277.86 146.159 277.86 147.406V155.194C277.86 156.441 277.56 157.387 276.958 158.032C276.357 158.677 275.455 159 274.252 159H270.556V143.6ZM274.208 156.8C274.604 156.8 274.905 156.683 275.11 156.448C275.33 156.213 275.44 155.832 275.44 155.304V147.296C275.44 146.768 275.33 146.387 275.11 146.152C274.905 145.917 274.604 145.8 274.208 145.8H272.976V156.8H274.208ZM281.321 143.6H284.599L287.107 159H284.687L284.247 155.942V155.986H281.497L281.057 159H278.813L281.321 143.6ZM283.961 153.896L282.883 146.284H282.839L281.783 153.896H283.961ZM288.281 143.6H291.977C293.18 143.6 294.082 143.923 294.683 144.568C295.284 145.213 295.585 146.159 295.585 147.406V155.194C295.585 156.441 295.284 157.387 294.683 158.032C294.082 158.677 293.18 159 291.977 159H288.281V143.6ZM291.933 156.8C292.329 156.8 292.63 156.683 292.835 156.448C293.055 156.213 293.165 155.832 293.165 155.304V147.296C293.165 146.768 293.055 146.387 292.835 146.152C292.63 145.917 292.329 145.8 291.933 145.8H290.701V156.8H291.933ZM297.218 143.6H303.818V145.8H299.638V149.87H302.96V152.07H299.638V156.8H303.818V159H297.218V143.6ZM308.734 143.6H311.154V149.87H313.75V143.6H316.17V159H313.75V152.07H311.154V159H308.734V143.6ZM317.972 143.6H320.392V159H317.972V143.6ZM325.351 159.22C324.177 159.22 323.29 158.89 322.689 158.23C322.087 157.555 321.787 156.595 321.787 155.348V154.468H324.075V155.524C324.075 156.521 324.493 157.02 325.329 157.02C325.739 157.02 326.047 156.903 326.253 156.668C326.473 156.419 326.583 156.023 326.583 155.48C326.583 154.835 326.436 154.27 326.143 153.786C325.849 153.287 325.307 152.693 324.515 152.004C323.517 151.124 322.821 150.332 322.425 149.628C322.029 148.909 321.831 148.103 321.831 147.208C321.831 145.991 322.139 145.052 322.755 144.392C323.371 143.717 324.265 143.38 325.439 143.38C326.597 143.38 327.47 143.717 328.057 144.392C328.658 145.052 328.959 146.005 328.959 147.252V147.89H326.671V147.098C326.671 146.57 326.568 146.189 326.363 145.954C326.157 145.705 325.857 145.58 325.461 145.58C324.654 145.58 324.251 146.071 324.251 147.054C324.251 147.611 324.397 148.132 324.691 148.616C324.999 149.1 325.549 149.687 326.341 150.376C327.353 151.256 328.049 152.055 328.431 152.774C328.812 153.493 329.003 154.336 329.003 155.304C329.003 156.565 328.687 157.533 328.057 158.208C327.441 158.883 326.539 159.22 325.351 159.22ZM332.282 145.8H329.752V143.6H337.232V145.8H334.702V159H332.282V145.8ZM341.816 159.22C340.628 159.22 339.719 158.883 339.088 158.208C338.457 157.533 338.142 156.58 338.142 155.348V147.252C338.142 146.02 338.457 145.067 339.088 144.392C339.719 143.717 340.628 143.38 341.816 143.38C343.004 143.38 343.913 143.717 344.544 144.392C345.175 145.067 345.49 146.02 345.49 147.252V155.348C345.49 156.58 345.175 157.533 344.544 158.208C343.913 158.883 343.004 159.22 341.816 159.22ZM341.816 157.02C342.652 157.02 343.07 156.514 343.07 155.502V147.098C343.07 146.086 342.652 145.58 341.816 145.58C340.98 145.58 340.562 146.086 340.562 147.098V155.502C340.562 156.514 340.98 157.02 341.816 157.02ZM342.036 140.036H344.676L342.322 142.566H340.496L342.036 140.036ZM347.127 143.6H350.713C351.959 143.6 352.869 143.893 353.441 144.48C354.013 145.052 354.299 145.939 354.299 147.142V148.088C354.299 149.687 353.771 150.699 352.715 151.124V151.168C353.301 151.344 353.712 151.703 353.947 152.246C354.196 152.789 354.321 153.515 354.321 154.424V157.13C354.321 157.57 354.335 157.929 354.365 158.208C354.394 158.472 354.467 158.736 354.585 159H352.121C352.033 158.751 351.974 158.516 351.945 158.296C351.915 158.076 351.901 157.68 351.901 157.108V154.292C351.901 153.588 351.783 153.097 351.549 152.818C351.329 152.539 350.94 152.4 350.383 152.4H349.547V159H347.127V143.6ZM350.427 150.2C350.911 150.2 351.27 150.075 351.505 149.826C351.754 149.577 351.879 149.159 351.879 148.572V147.384C351.879 146.827 351.776 146.423 351.571 146.174C351.38 145.925 351.072 145.8 350.647 145.8H349.547V150.2H350.427ZM356 143.6H358.42V159H356V143.6ZM363.642 159.22C362.483 159.22 361.596 158.89 360.98 158.23C360.379 157.57 360.078 156.639 360.078 155.436V147.164C360.078 145.961 360.379 145.03 360.98 144.37C361.596 143.71 362.483 143.38 363.642 143.38C364.801 143.38 365.681 143.71 366.282 144.37C366.898 145.03 367.206 145.961 367.206 147.164V148.792H364.918V147.01C364.918 146.057 364.515 145.58 363.708 145.58C362.901 145.58 362.498 146.057 362.498 147.01V155.612C362.498 156.551 362.901 157.02 363.708 157.02C364.515 157.02 364.918 156.551 364.918 155.612V153.258H367.206V155.436C367.206 156.639 366.898 157.57 366.282 158.23C365.681 158.89 364.801 159.22 363.642 159.22ZM370.524 143.6H373.802L376.31 159H373.89L373.45 155.942V155.986H370.7L370.26 159H368.016L370.524 143.6ZM373.164 153.896L372.086 146.284H372.042L370.986 153.896H373.164ZM381.007 143.6H384.703C385.906 143.6 386.808 143.923 387.409 144.568C388.011 145.213 388.311 146.159 388.311 147.406V155.194C388.311 156.441 388.011 157.387 387.409 158.032C386.808 158.677 385.906 159 384.703 159H381.007V143.6ZM384.659 156.8C385.055 156.8 385.356 156.683 385.561 156.448C385.781 156.213 385.891 155.832 385.891 155.304V147.296C385.891 146.768 385.781 146.387 385.561 146.152C385.356 145.917 385.055 145.8 384.659 145.8H383.427V156.8H384.659ZM389.945 143.6H396.545V145.8H392.365V149.87H395.687V152.07H392.365V156.8H396.545V159H389.945V143.6ZM404.959 159.22C403.771 159.22 402.861 158.883 402.231 158.208C401.6 157.533 401.285 156.58 401.285 155.348V147.252C401.285 146.02 401.6 145.067 402.231 144.392C402.861 143.717 403.771 143.38 404.959 143.38C406.147 143.38 407.056 143.717 407.687 144.392C408.317 145.067 408.633 146.02 408.633 147.252V155.348C408.633 156.58 408.317 157.533 407.687 158.208C407.056 158.883 406.147 159.22 404.959 159.22ZM404.959 157.02C405.795 157.02 406.213 156.514 406.213 155.502V147.098C406.213 146.086 405.795 145.58 404.959 145.58C404.123 145.58 403.705 146.086 403.705 147.098V155.502C403.705 156.514 404.123 157.02 404.959 157.02ZM413.789 159.22C412.616 159.22 411.721 158.89 411.105 158.23C410.489 157.555 410.181 156.595 410.181 155.348V143.6H412.601V155.524C412.601 156.052 412.704 156.433 412.909 156.668C413.129 156.903 413.437 157.02 413.833 157.02C414.229 157.02 414.53 156.903 414.735 156.668C414.955 156.433 415.065 156.052 415.065 155.524V143.6H417.397V155.348C417.397 156.595 417.089 157.555 416.473 158.23C415.857 158.89 414.963 159.22 413.789 159.22ZM419.121 143.6H422.707C423.953 143.6 424.863 143.893 425.435 144.48C426.007 145.052 426.293 145.939 426.293 147.142V148.088C426.293 149.687 425.765 150.699 424.709 151.124V151.168C425.295 151.344 425.706 151.703 425.941 152.246C426.19 152.789 426.315 153.515 426.315 154.424V157.13C426.315 157.57 426.329 157.929 426.359 158.208C426.388 158.472 426.461 158.736 426.579 159H424.115C424.027 158.751 423.968 158.516 423.939 158.296C423.909 158.076 423.895 157.68 423.895 157.108V154.292C423.895 153.588 423.777 153.097 423.543 152.818C423.323 152.539 422.934 152.4 422.377 152.4H421.541V159H419.121V143.6ZM422.421 150.2C422.905 150.2 423.264 150.075 423.499 149.826C423.748 149.577 423.873 149.159 423.873 148.572V147.384C423.873 146.827 423.77 146.423 423.565 146.174C423.374 145.925 423.066 145.8 422.641 145.8H421.541V150.2H422.421ZM431.492 159.22C430.304 159.22 429.394 158.883 428.764 158.208C428.133 157.533 427.818 156.58 427.818 155.348V147.252C427.818 146.02 428.133 145.067 428.764 144.392C429.394 143.717 430.304 143.38 431.492 143.38C432.68 143.38 433.589 143.717 434.22 144.392C434.85 145.067 435.166 146.02 435.166 147.252V155.348C435.166 156.58 434.85 157.533 434.22 158.208C433.589 158.883 432.68 159.22 431.492 159.22ZM431.492 157.02C432.328 157.02 432.746 156.514 432.746 155.502V147.098C432.746 146.086 432.328 145.58 431.492 145.58C430.656 145.58 430.238 146.086 430.238 147.098V155.502C430.238 156.514 430.656 157.02 431.492 157.02ZM440.326 143.6H443.89C445.092 143.6 445.994 143.923 446.596 144.568C447.197 145.213 447.498 146.159 447.498 147.406V148.924C447.498 150.171 447.197 151.117 446.596 151.762C445.994 152.407 445.092 152.73 443.89 152.73H442.746V159H440.326V143.6ZM443.89 150.53C444.286 150.53 444.579 150.42 444.77 150.2C444.975 149.98 445.078 149.606 445.078 149.078V147.252C445.078 146.724 444.975 146.35 444.77 146.13C444.579 145.91 444.286 145.8 443.89 145.8H442.746V150.53H443.89ZM448.812 143.6H452.398C453.645 143.6 454.554 143.893 455.126 144.48C455.698 145.052 455.984 145.939 455.984 147.142V148.088C455.984 149.687 455.456 150.699 454.4 151.124V151.168C454.987 151.344 455.397 151.703 455.632 152.246C455.881 152.789 456.006 153.515 456.006 154.424V157.13C456.006 157.57 456.021 157.929 456.05 158.208C456.079 158.472 456.153 158.736 456.27 159H453.806C453.718 158.751 453.659 158.516 453.63 158.296C453.601 158.076 453.586 157.68 453.586 157.108V154.292C453.586 153.588 453.469 153.097 453.234 152.818C453.014 152.539 452.625 152.4 452.068 152.4H451.232V159H448.812V143.6ZM452.112 150.2C452.596 150.2 452.955 150.075 453.19 149.826C453.439 149.577 453.564 149.159 453.564 148.572V147.384C453.564 146.827 453.461 146.423 453.256 146.174C453.065 145.925 452.757 145.8 452.332 145.8H451.232V150.2H452.112ZM457.685 143.6H464.285V145.8H460.105V149.87H463.427V152.07H460.105V156.8H464.285V159H457.685V143.6ZM467.569 145.8H465.039V143.6H472.519V145.8H469.989V159H467.569V145.8ZM477.103 159.22C475.915 159.22 475.006 158.883 474.375 158.208C473.744 157.533 473.429 156.58 473.429 155.348V147.252C473.429 146.02 473.744 145.067 474.375 144.392C475.006 143.717 475.915 143.38 477.103 143.38C478.291 143.38 479.2 143.717 479.831 144.392C480.462 145.067 480.777 146.02 480.777 147.252V155.348C480.777 156.58 480.462 157.533 479.831 158.208C479.2 158.883 478.291 159.22 477.103 159.22ZM477.103 157.02C477.939 157.02 478.357 156.514 478.357 155.502V147.098C478.357 146.086 477.939 145.58 477.103 145.58C476.267 145.58 475.849 146.086 475.849 147.098V155.502C475.849 156.514 476.267 157.02 477.103 157.02ZM261.048 185.22C259.875 185.22 258.987 184.89 258.386 184.23C257.785 183.555 257.484 182.595 257.484 181.348V180.468H259.772V181.524C259.772 182.521 260.19 183.02 261.026 183.02C261.437 183.02 261.745 182.903 261.95 182.668C262.17 182.419 262.28 182.023 262.28 181.48C262.28 180.835 262.133 180.27 261.84 179.786C261.547 179.287 261.004 178.693 260.212 178.004C259.215 177.124 258.518 176.332 258.122 175.628C257.726 174.909 257.528 174.103 257.528 173.208C257.528 171.991 257.836 171.052 258.452 170.392C259.068 169.717 259.963 169.38 261.136 169.38C262.295 169.38 263.167 169.717 263.754 170.392C264.355 171.052 264.656 172.005 264.656 173.252V173.89H262.368V173.098C262.368 172.57 262.265 172.189 262.06 171.954C261.855 171.705 261.554 171.58 261.158 171.58C260.351 171.58 259.948 172.071 259.948 173.054C259.948 173.611 260.095 174.132 260.388 174.616C260.696 175.1 261.246 175.687 262.038 176.376C263.05 177.256 263.747 178.055 264.128 178.774C264.509 179.493 264.7 180.336 264.7 181.304C264.7 182.565 264.385 183.533 263.754 184.208C263.138 184.883 262.236 185.22 261.048 185.22ZM267.893 169.6H271.171L273.679 185H271.259L270.819 181.942V181.986H268.069L267.629 185H265.385L267.893 169.6ZM270.533 179.896L269.455 172.284H269.411L268.355 179.896H270.533ZM274.853 169.6H277.889L280.243 178.818H280.287V169.6H282.443V185H279.957L277.053 173.758H277.009V185H274.853V169.6ZM286.134 171.8H283.604V169.6H291.084V171.8H288.554V185H286.134V171.8ZM295.776 185.22C294.602 185.22 293.708 184.89 293.092 184.23C292.476 183.555 292.168 182.595 292.168 181.348V169.6H294.588V181.524C294.588 182.052 294.69 182.433 294.896 182.668C295.116 182.903 295.424 183.02 295.82 183.02C296.216 183.02 296.516 182.903 296.722 182.668C296.942 182.433 297.052 182.052 297.052 181.524V169.6H299.384V181.348C299.384 182.595 299.076 183.555 298.46 184.23C297.844 184.89 296.949 185.22 295.776 185.22ZM302.934 169.6H306.212L308.72 185H306.3L305.86 181.942V181.986H303.11L302.67 185H300.426L302.934 169.6ZM305.574 179.896L304.496 172.284H304.452L303.396 179.896H305.574ZM304.804 166.036H307.444L305.09 168.566H303.264L304.804 166.036ZM309.894 169.6H313.48C314.727 169.6 315.636 169.893 316.208 170.48C316.78 171.052 317.066 171.939 317.066 173.142V174.088C317.066 175.687 316.538 176.699 315.482 177.124V177.168C316.069 177.344 316.48 177.703 316.714 178.246C316.964 178.789 317.088 179.515 317.088 180.424V183.13C317.088 183.57 317.103 183.929 317.132 184.208C317.162 184.472 317.235 184.736 317.352 185H314.888C314.8 184.751 314.742 184.516 314.712 184.296C314.683 184.076 314.668 183.68 314.668 183.108V180.292C314.668 179.588 314.551 179.097 314.316 178.818C314.096 178.539 313.708 178.4 313.15 178.4H312.314V185H309.894V169.6ZM313.194 176.2C313.678 176.2 314.038 176.075 314.272 175.826C314.522 175.577 314.646 175.159 314.646 174.572V173.384C314.646 172.827 314.544 172.423 314.338 172.174C314.148 171.925 313.84 171.8 313.414 171.8H312.314V176.2H313.194ZM318.767 169.6H321.187V185H318.767V169.6ZM326.498 185.22C325.31 185.22 324.4 184.883 323.77 184.208C323.139 183.533 322.824 182.58 322.824 181.348V173.252C322.824 172.02 323.139 171.067 323.77 170.392C324.4 169.717 325.31 169.38 326.498 169.38C327.686 169.38 328.595 169.717 329.226 170.392C329.856 171.067 330.172 172.02 330.172 173.252V181.348C330.172 182.58 329.856 183.533 329.226 184.208C328.595 184.883 327.686 185.22 326.498 185.22ZM326.498 183.02C327.334 183.02 327.752 182.514 327.752 181.502V173.098C327.752 172.086 327.334 171.58 326.498 171.58C325.662 171.58 325.244 172.086 325.244 173.098V181.502C325.244 182.514 325.662 183.02 326.498 183.02ZM335.332 169.6H339.028C340.23 169.6 341.132 169.923 341.734 170.568C342.335 171.213 342.636 172.159 342.636 173.406V181.194C342.636 182.441 342.335 183.387 341.734 184.032C341.132 184.677 340.23 185 339.028 185H335.332V169.6ZM338.984 182.8C339.38 182.8 339.68 182.683 339.886 182.448C340.106 182.213 340.216 181.832 340.216 181.304V173.296C340.216 172.768 340.106 172.387 339.886 172.152C339.68 171.917 339.38 171.8 338.984 171.8H337.752V182.8H338.984ZM347.767 185.22C346.579 185.22 345.67 184.883 345.039 184.208C344.409 183.533 344.093 182.58 344.093 181.348V173.252C344.093 172.02 344.409 171.067 345.039 170.392C345.67 169.717 346.579 169.38 347.767 169.38C348.955 169.38 349.865 169.717 350.495 170.392C351.126 171.067 351.441 172.02 351.441 173.252V181.348C351.441 182.58 351.126 183.533 350.495 184.208C349.865 184.883 348.955 185.22 347.767 185.22ZM347.767 183.02C348.603 183.02 349.021 182.514 349.021 181.502V173.098C349.021 172.086 348.603 171.58 347.767 171.58C346.931 171.58 346.513 172.086 346.513 173.098V181.502C346.513 182.514 346.931 183.02 347.767 183.02ZM356.601 169.6H360.253C361.5 169.6 362.409 169.893 362.981 170.48C363.553 171.052 363.839 171.939 363.839 173.142V173.758C363.839 174.55 363.707 175.195 363.443 175.694C363.194 176.193 362.805 176.552 362.277 176.772V176.816C363.48 177.227 364.081 178.297 364.081 180.028V181.348C364.081 182.536 363.766 183.445 363.135 184.076C362.519 184.692 361.61 185 360.407 185H356.601V169.6ZM359.967 175.87C360.451 175.87 360.811 175.745 361.045 175.496C361.295 175.247 361.419 174.829 361.419 174.242V173.384C361.419 172.827 361.317 172.423 361.111 172.174C360.921 171.925 360.613 171.8 360.187 171.8H359.021V175.87H359.967ZM360.407 182.8C360.833 182.8 361.148 182.69 361.353 182.47C361.559 182.235 361.661 181.839 361.661 181.282V179.94C361.661 179.236 361.537 178.752 361.287 178.488C361.053 178.209 360.657 178.07 360.099 178.07H359.021V182.8H360.407ZM368.994 185.22C367.806 185.22 366.896 184.883 366.266 184.208C365.635 183.533 365.32 182.58 365.32 181.348V173.252C365.32 172.02 365.635 171.067 366.266 170.392C366.896 169.717 367.806 169.38 368.994 169.38C370.182 169.38 371.091 169.717 371.722 170.392C372.352 171.067 372.668 172.02 372.668 173.252V181.348C372.668 182.58 372.352 183.533 371.722 184.208C371.091 184.883 370.182 185.22 368.994 185.22ZM368.994 183.02C369.83 183.02 370.248 182.514 370.248 181.502V173.098C370.248 172.086 369.83 171.58 368.994 171.58C368.158 171.58 367.74 172.086 367.74 173.098V181.502C367.74 182.514 368.158 183.02 368.994 183.02ZM374.304 169.6H377.758L379.298 180.622H379.342L380.882 169.6H384.336V185H382.048V173.34H382.004L380.244 185H378.22L376.46 173.34H376.416V185H374.304V169.6ZM390.238 185.088C389.798 185.088 389.424 185.059 389.116 185V182.8C389.35 182.859 389.614 182.888 389.908 182.888C390.392 182.888 390.751 182.771 390.986 182.536C391.22 182.287 391.338 181.913 391.338 181.414V169.6H393.758V181.348C393.758 182.609 393.464 183.548 392.878 184.164C392.306 184.78 391.426 185.088 390.238 185.088ZM395.488 169.6H402.088V171.8H397.908V175.87H401.23V178.07H397.908V182.8H402.088V185H395.488V169.6ZM406.669 185.22C405.496 185.22 404.608 184.89 404.007 184.23C403.406 183.555 403.105 182.595 403.105 181.348V180.468H405.393V181.524C405.393 182.521 405.811 183.02 406.647 183.02C407.058 183.02 407.366 182.903 407.571 182.668C407.791 182.419 407.901 182.023 407.901 181.48C407.901 180.835 407.754 180.27 407.461 179.786C407.168 179.287 406.625 178.693 405.833 178.004C404.836 177.124 404.139 176.332 403.743 175.628C403.347 174.909 403.149 174.103 403.149 173.208C403.149 171.991 403.457 171.052 404.073 170.392C404.689 169.717 405.584 169.38 406.757 169.38C407.916 169.38 408.788 169.717 409.375 170.392C409.976 171.052 410.277 172.005 410.277 173.252V173.89H407.989V173.098C407.989 172.57 407.886 172.189 407.681 171.954C407.476 171.705 407.175 171.58 406.779 171.58C405.972 171.58 405.569 172.071 405.569 173.054C405.569 173.611 405.716 174.132 406.009 174.616C406.317 175.1 406.867 175.687 407.659 176.376C408.671 177.256 409.368 178.055 409.749 178.774C410.13 179.493 410.321 180.336 410.321 181.304C410.321 182.565 410.006 183.533 409.375 184.208C408.759 184.883 407.857 185.22 406.669 185.22ZM415.229 185.22C414.055 185.22 413.161 184.89 412.545 184.23C411.929 183.555 411.621 182.595 411.621 181.348V169.6H414.041V181.524C414.041 182.052 414.143 182.433 414.349 182.668C414.569 182.903 414.877 183.02 415.273 183.02C415.669 183.02 415.969 182.903 416.175 182.668C416.395 182.433 416.505 182.052 416.505 181.524V169.6H418.837V181.348C418.837 182.595 418.529 183.555 417.913 184.23C417.297 184.89 416.402 185.22 415.229 185.22ZM423.706 185.22C422.533 185.22 421.646 184.89 421.044 184.23C420.443 183.555 420.142 182.595 420.142 181.348V180.468H422.43V181.524C422.43 182.521 422.848 183.02 423.684 183.02C424.095 183.02 424.403 182.903 424.608 182.668C424.828 182.419 424.938 182.023 424.938 181.48C424.938 180.835 424.792 180.27 424.498 179.786C424.205 179.287 423.662 178.693 422.87 178.004C421.873 177.124 421.176 176.332 420.78 175.628C420.384 174.909 420.186 174.103 420.186 173.208C420.186 171.991 420.494 171.052 421.11 170.392C421.726 169.717 422.621 169.38 423.794 169.38C424.953 169.38 425.826 169.717 426.412 170.392C427.014 171.052 427.314 172.005 427.314 173.252V173.89H425.026V173.098C425.026 172.57 424.924 172.189 424.718 171.954C424.513 171.705 424.212 171.58 423.816 171.58C423.01 171.58 422.606 172.071 422.606 173.054C422.606 173.611 422.753 174.132 423.046 174.616C423.354 175.1 423.904 175.687 424.696 176.376C425.708 177.256 426.405 178.055 426.786 178.774C427.168 179.493 427.358 180.336 427.358 181.304C427.358 182.565 427.043 183.533 426.412 184.208C425.796 184.883 424.894 185.22 423.706 185.22ZM432.269 169.6H435.965C437.168 169.6 438.07 169.923 438.671 170.568C439.273 171.213 439.573 172.159 439.573 173.406V181.194C439.573 182.441 439.273 183.387 438.671 184.032C438.07 184.677 437.168 185 435.965 185H432.269V169.6ZM435.921 182.8C436.317 182.8 436.618 182.683 436.823 182.448C437.043 182.213 437.153 181.832 437.153 181.304V173.296C437.153 172.768 437.043 172.387 436.823 172.152C436.618 171.917 436.317 171.8 435.921 171.8H434.689V182.8H435.921ZM444.705 185.22C443.517 185.22 442.607 184.883 441.977 184.208C441.346 183.533 441.031 182.58 441.031 181.348V173.252C441.031 172.02 441.346 171.067 441.977 170.392C442.607 169.717 443.517 169.38 444.705 169.38C445.893 169.38 446.802 169.717 447.433 170.392C448.063 171.067 448.379 172.02 448.379 173.252V181.348C448.379 182.58 448.063 183.533 447.433 184.208C446.802 184.883 445.893 185.22 444.705 185.22ZM444.705 183.02C445.541 183.02 445.959 182.514 445.959 181.502V173.098C445.959 172.086 445.541 171.58 444.705 171.58C443.869 171.58 443.451 172.086 443.451 173.098V181.502C443.451 182.514 443.869 183.02 444.705 183.02ZM456.949 185.22C455.79 185.22 454.903 184.89 454.287 184.23C453.685 183.57 453.385 182.639 453.385 181.436V173.164C453.385 171.961 453.685 171.03 454.287 170.37C454.903 169.71 455.79 169.38 456.949 169.38C458.107 169.38 458.987 169.71 459.589 170.37C460.205 171.03 460.513 171.961 460.513 173.164V174.792H458.225V173.01C458.225 172.057 457.821 171.58 457.015 171.58C456.208 171.58 455.805 172.057 455.805 173.01V181.612C455.805 182.551 456.208 183.02 457.015 183.02C457.821 183.02 458.225 182.551 458.225 181.612V179.258H460.513V181.436C460.513 182.639 460.205 183.57 459.589 184.23C458.987 184.89 458.107 185.22 456.949 185.22ZM465.502 185.22C464.314 185.22 463.404 184.883 462.774 184.208C462.143 183.533 461.828 182.58 461.828 181.348V173.252C461.828 172.02 462.143 171.067 462.774 170.392C463.404 169.717 464.314 169.38 465.502 169.38C466.69 169.38 467.599 169.717 468.23 170.392C468.86 171.067 469.176 172.02 469.176 173.252V181.348C469.176 182.58 468.86 183.533 468.23 184.208C467.599 184.883 466.69 185.22 465.502 185.22ZM465.502 183.02C466.338 183.02 466.756 182.514 466.756 181.502V173.098C466.756 172.086 466.338 171.58 465.502 171.58C464.666 171.58 464.248 172.086 464.248 173.098V181.502C464.248 182.514 464.666 183.02 465.502 183.02ZM470.812 169.6H473.848L476.202 178.818H476.246V169.6H478.402V185H475.916L473.012 173.758H472.968V185H470.812V169.6ZM483.633 185.22C482.459 185.22 481.565 184.89 480.949 184.23C480.333 183.555 480.025 182.595 480.025 181.348V173.252C480.025 172.005 480.333 171.052 480.949 170.392C481.565 169.717 482.459 169.38 483.633 169.38C484.806 169.38 485.701 169.717 486.317 170.392C486.933 171.052 487.241 172.005 487.241 173.252V174.572H484.953V173.098C484.953 172.086 484.535 171.58 483.699 171.58C482.863 171.58 482.445 172.086 482.445 173.098V181.524C482.445 182.521 482.863 183.02 483.699 183.02C484.535 183.02 484.953 182.521 484.953 181.524V178.51H483.743V176.31H487.241V181.348C487.241 182.595 486.933 183.555 486.317 184.23C485.701 184.89 484.806 185.22 483.633 185.22ZM492.293 185.22C491.105 185.22 490.195 184.883 489.565 184.208C488.934 183.533 488.619 182.58 488.619 181.348V173.252C488.619 172.02 488.934 171.067 489.565 170.392C490.195 169.717 491.105 169.38 492.293 169.38C493.481 169.38 494.39 169.717 495.021 170.392C495.651 171.067 495.967 172.02 495.967 173.252V181.348C495.967 182.58 495.651 183.533 495.021 184.208C494.39 184.883 493.481 185.22 492.293 185.22ZM492.293 183.02C493.129 183.02 493.547 182.514 493.547 181.502V173.098C493.547 172.086 493.129 171.58 492.293 171.58C491.457 171.58 491.039 172.086 491.039 173.098V181.502C491.039 182.514 491.457 183.02 492.293 183.02ZM497.603 169.6H500.639L502.993 178.818H503.037V169.6H505.193V185H502.707L499.803 173.758H499.759V185H497.603V169.6ZM506.992 169.6H509.412V175.87H512.008V169.6H514.428V185H512.008V178.07H509.412V185H506.992V169.6ZM518.1 169.6H521.378L523.886 185H521.466L521.026 181.942V181.986H518.276L517.836 185H515.592L518.1 169.6ZM520.74 179.896L519.662 172.284H519.618L518.562 179.896H520.74ZM528.142 185.22C526.968 185.22 526.081 184.89 525.48 184.23C524.878 183.555 524.578 182.595 524.578 181.348V180.468H526.866V181.524C526.866 182.521 527.284 183.02 528.12 183.02C528.53 183.02 528.838 182.903 529.044 182.668C529.264 182.419 529.374 182.023 529.374 181.48C529.374 180.835 529.227 180.27 528.934 179.786C528.64 179.287 528.098 178.693 527.306 178.004C526.308 177.124 525.612 176.332 525.216 175.628C524.82 174.909 524.622 174.103 524.622 173.208C524.622 171.991 524.93 171.052 525.546 170.392C526.162 169.717 527.056 169.38 528.23 169.38C529.388 169.38 530.261 169.717 530.848 170.392C531.449 171.052 531.75 172.005 531.75 173.252V173.89H529.462V173.098C529.462 172.57 529.359 172.189 529.154 171.954C528.948 171.705 528.648 171.58 528.252 171.58C527.445 171.58 527.042 172.071 527.042 173.054C527.042 173.611 527.188 174.132 527.482 174.616C527.79 175.1 528.34 175.687 529.132 176.376C530.144 177.256 530.84 178.055 531.222 178.774C531.603 179.493 531.794 180.336 531.794 181.304C531.794 182.565 531.478 183.533 530.848 184.208C530.232 184.883 529.33 185.22 528.142 185.22Z" fill="black"/>
</svg>
